<svg xmlns="http://www.w3.org/2000/svg" viewBox="0 0 240 240" width="240" height="240">
  <defs>
    <radialGradient id="bg-xuanzang" cx="50%" cy="40%" r="70%">
      <stop offset="0%" stop-color="#c0a04a" stop-opacity="0.9"/>
      <stop offset="100%" stop-color="#3a3a2a" stop-opacity="1"/>
    </radialGradient>
    <radialGradient id="face-xuanzang" cx="50%" cy="50%" r="50%">
      <stop offset="0%" stop-color="#e8c8a0"/>
      <stop offset="100%" stop-color="#a07858"/>
    </radialGradient>
    <filter id="paint-xuanzang">
      <feTurbulence type="fractalNoise" baseFrequency="0.9" numOctaves="2" seed="3"/>
      <feDisplacementMap in="SourceGraphic" scale="1.2"/>
    </filter>
  </defs>
  <rect width="240" height="240" fill="url(#bg-xuanzang)"/>
  <!-- 装饰圆环 -->
  <circle cx="120" cy="100" r="85" fill="none" stroke="#e0c870" stroke-width="1" opacity="0.25"/>
  <!-- 肩膀/服装 -->
  <path d="M 35 240 L 55 170 L 90 175 L 120 200 L 150 175 L 185 170 L 205 240 Z" fill="#8a7a3a"/><path d="M 105 175 L 120 205 L 135 175 L 130 240 L 110 240 Z" fill="#c0a04a"/>
  <!-- 脖子 -->
  <rect x="105" y="160" width="30" height="25" fill="#a07858"/>
  <!-- 头部 -->
  <ellipse cx="120" cy="110" rx="38" ry="45" fill="url(#face-xuanzang)"/>
  <!-- 头发 -->
  
  <!-- 眼睛 -->
  <ellipse cx="108" cy="108" rx="3" ry="2" fill="#1a1a1a"/>
  <ellipse cx="132" cy="108" rx="3" ry="2" fill="#1a1a1a"/>
  <!-- 鼻 -->
  <path d="M 120 115 L 117 128 L 123 128 Z" fill="#8a6040" opacity="0.4"/>
  <!-- 胡须 -->
  <path d="M 95 95 Q 120 100 145 95 L 140 105 Q 120 102 100 105 Z" fill="#8a7a3a"/>
  <!-- 标志物 -->
  <circle cx="120" cy="60" r="55" fill="none" stroke="#e0c870" stroke-width="2" opacity="0.6"/>
  <!-- 油画质感 filter 应用整体 -->
  <rect width="240" height="240" fill="#8a7a3a" opacity="0.05" filter="url(#paint-xuanzang)"/>
  <!-- 名字水印 -->
  <rect x="0" y="218" width="240" height="22" fill="#3a3a2a" opacity="0.85"/>
  <text x="120" y="234" text-anchor="middle" font-family="'Noto Sans CJK SC', 'PingFang SC', 'Microsoft YaHei', 'Hiragino Sans GB', 'Source Han Sans SC', 'WenQuanYi Micro Hei', 'Heiti SC', Georgia, serif" font-size="13" fill="#e0c870" font-weight="600" letter-spacing="2">玄奘</text>
</svg>