<svg xmlns="http://www.w3.org/2000/svg" viewBox="0 0 240 240" width="240" height="240">

  <defs>
    <radialGradient id="bg-mother_teresa" cx="50%" cy="40%" r="70%">
      <stop offset="0%" stop-color="#1a1a2a" stop-opacity="0.9"/>
      <stop offset="100%" stop-color="#08080f" stop-opacity="1"/>
    </radialGradient>
    <radialGradient id="face-mother_teresa" cx="50%" cy="50%" r="50%">
      <stop offset="0%" stop-color="#c0a080"/>
      <stop offset="100%" stop-color="#7c6853"/>
    </radialGradient>
    <filter id="paint-mother_teresa">
      <feTurbulence type="fractalNoise" baseFrequency="0.9" numOctaves="2" seed="38"/>
      <feDisplacementMap in="SourceGraphic" scale="1.2"/>
    </filter>
  </defs>
  <rect width="240" height="240" fill="url(#bg-mother_teresa)"/>
  <circle cx="120" cy="100" r="85" fill="none" stroke="#1a1a2a" stroke-width="1" opacity="0.4"/>
  <path d="M 30 240 L 50 165 L 90 175 L 120 205 L 150 175 L 190 165 L 210 240 Z" fill="#f0f0f0"/>
  <ellipse cx="120" cy="180" rx="30" ry="12" fill="#f1f1f1" opacity="0.7"/>
  <rect x="105" y="160" width="30" height="25" fill="#998066"/>
  <ellipse cx="120" cy="110" rx="38" ry="45" fill="url(#face-mother_teresa)"/>
  <path d="M 78 90 Q 75 50 120 45 Q 165 50 162 90 L 158 95 Q 120 70 82 95 Z" fill="#f0f0f0"/>
  <rect x="78" y="88" width="84" height="6" fill="#cccccc"/>
  <ellipse cx="108" cy="108" rx="3" ry="2" fill="#1a1a1a"/>
  <ellipse cx="132" cy="108" rx="3" ry="2" fill="#1a1a1a"/>
  <path d="M 120 115 L 117 128 L 123 128 Z" fill="#867059" opacity="0.4"/>
  <path d="M 113 138 Q 120 142 127 138" stroke="#605040" stroke-width="1" fill="none" opacity="0.5"/>
  <rect x="116" y="170" width="8" height="20" fill="#d4af37"/>
  <rect x="110" y="175" width="20" height="6" fill="#d4af37"/>
  <rect width="240" height="240" fill="#08080f" opacity="0.05" filter="url(#paint-mother_teresa)"/>
  <rect x="0" y="218" width="240" height="22" fill="#08080f" opacity="0.85"/>
  <text x="120" y="234" text-anchor="middle" font-family="'Noto Sans CJK SC', 'PingFang SC', 'Microsoft YaHei', 'Hiragino Sans GB', 'Source Han Sans SC', 'WenQuanYi Micro Hei', 'Heiti SC', Georgia, serif" font-size="13" fill="#75757f" font-weight="600" letter-spacing="2">特蕾莎修女</text>
</svg>